<svg xmlns="http://www.w3.org/2000/svg" viewBox="0 0 80 80"><defs><style>.cls-1{fill:#729138;fill-rule:evenodd;}</style></defs><title>Datový zdroj 2</title><g id="Vrstva_2" data-name="Vrstva 2"><g id="Vrstva_1-2" data-name="Vrstva 1"><path class="cls-1" d="M40,0A40,40,0,1,1,0,40,40,40,0,0,1,40,0ZM67.61,12.39A39.06,39.06,0,1,0,79,40,39,39,0,0,0,67.61,12.39Z"/><path class="cls-1" d="M53.26,54.36a3.32,3.32,0,1,1,3.31-3.31,3.31,3.31,0,0,1-3.31,3.31Zm3.31-19.88L60.9,40H51.05V34.48ZM26.74,54.36a3.32,3.32,0,1,1,3.32-3.31,3.31,3.31,0,0,1-3.32,3.31Zm30.94-23.2H51.05V22.32H46.1V38.76a5.65,5.65,0,0,1-1.66,4h0a5.65,5.65,0,0,1-4,1.66H15.69v6.63h4.42a6.63,6.63,0,0,0,13.26,0H46.63a6.63,6.63,0,0,0,13.26,0h4.42V40l-6.63-8.84Z"/><path class="cls-1" d="M43.27,22.32H20.11a4.43,4.43,0,0,0-4.42,4.42V41.59H40.44a2.86,2.86,0,0,0,2-.82h0a2.86,2.86,0,0,0,.82-2Z"/></g></g></svg>