<svg xmlns="http://www.w3.org/2000/svg" viewBox="0 0 80 80"><defs><style>.cls-1{fill:#729138;fill-rule:evenodd;}</style></defs><title>Datový zdroj 1</title><g id="Vrstva_2" data-name="Vrstva 2"><g id="Vrstva_1-2" data-name="Vrstva 1"><path class="cls-1" d="M40,0A40,40,0,1,1,0,40,40,40,0,0,1,40,0ZM67.61,12.39A39.06,39.06,0,1,0,79,40,39,39,0,0,0,67.61,12.39Z"/><path class="cls-1" d="M29.33,21.62A6.1,6.1,0,0,1,33,22.86a7.2,7.2,0,0,1,14.06-.94,7,7,0,0,1,2.71-.54,7.2,7.2,0,0,1,7.2,7.2,7.29,7.29,0,0,1-.69,3.1A7.73,7.73,0,0,1,54,46.28a7.73,7.73,0,0,1-8.1,3.62,28.58,28.58,0,0,1,4.3-9.31H47.47a40.93,40.93,0,0,0-3.87,8.48c-1.37,5.08-.52,9.61,3,14.25H33.38c3.58-4.7,4.41-9.29,3-14.45a40.88,40.88,0,0,0-2-6.54l-2.7-.44a30.24,30.24,0,0,1,2.55,8,7.83,7.83,0,0,1-2.29.34,7.73,7.73,0,0,1-6.8-4,7.74,7.74,0,0,1-.66-14.74,6.15,6.15,0,0,1,4.9-9.87Z"/></g></g></svg>